<svg width="32" height="32" viewBox="0 0 32 32" fill="none" xmlns="http://www.w3.org/2000/svg">
<path fill-rule="evenodd" clip-rule="evenodd" d="M11.1931 0.574253C13.456 -0.224594 15.9083 0.0505647 18.2659 0.0283745C25.9428 0.782841 32.371 7.98134 31.9833 15.6059C32.344 23.2349 25.9563 30.2914 18.3245 31.1834C14.7452 31.7603 11.1299 30.8639 7.9519 29.2529C5.21562 29.8032 2.70021 31.2411 0 32C0.689704 29.4836 1.46507 26.9939 2.16829 24.482C2.48385 23.8163 1.99249 23.1861 1.76259 22.5914C-0.518396 18.2598 -0.464298 12.8765 1.75357 8.53609C3.65589 4.78595 7.12696 1.83466 11.1931 0.574253ZM12.6536 3.43679C18.6491 1.67045 25.5461 4.97235 27.8677 10.6797C30.64 16.6932 27.5521 24.4553 21.3899 27.0338C15.6874 29.7544 8.21335 27.4421 5.08489 22.0277C2.03306 17.1548 2.97971 10.3379 7.25768 6.45909C8.76782 5.03004 10.6476 4.00486 12.6536 3.43679Z" fill="white"/>
<path fill-rule="evenodd" clip-rule="evenodd" d="M14.8625 5.13656C18.5048 4.65725 22.314 6.24607 24.5228 9.12635C26.8219 12.0066 27.3312 16.1251 25.8481 19.4759C24.1442 23.5189 19.6498 26.1906 15.2186 25.7157C11.9414 25.4495 8.86699 23.55 7.18105 20.7718C5.32831 17.8249 5.15701 13.9283 6.74829 10.835C8.25392 7.75056 11.4185 5.55817 14.8625 5.13656ZM16.3591 6.57004C18.9196 7.06267 18.9105 9.97846 18.9015 11.9978C19.2035 12.0421 19.8121 12.1265 20.1186 12.1664C20.4703 10.9238 21.1329 8.77575 22.8685 9.33938C22.9947 10.4933 21.8992 11.3498 21.453 12.3528C22.9225 12.9342 25.3027 13.2005 25.1224 15.2863C23.9819 14.9579 22.8955 14.4964 21.7911 14.0836C22.35 15.739 23.5942 17.0971 24.063 18.7791C24.1577 19.3516 24.0405 20.5721 23.193 20.359C22.1652 18.0512 20.6506 15.9432 20.1412 13.4401C19.8211 13.4002 19.1765 13.3203 18.8565 13.2804C18.7302 16.276 18.3876 19.2628 17.7791 22.2008C17.5852 22.9553 17.4229 23.7586 16.9181 24.3799C16.2644 24.8769 15.2005 23.8518 15.6333 23.1861C16.7828 19.9108 17.7655 16.4891 17.5988 12.9874C17.2201 12.9963 16.4628 13.0185 16.0841 13.0318C14.9797 16.6311 12.3336 19.7643 9.11043 21.7215C9.19608 20.9848 9.11042 20.1016 9.75956 19.5735C11.6168 17.6651 13.5732 15.708 14.4838 13.1605C11.9684 13.2892 9.74603 14.4786 7.46054 15.3795C7.51914 15.0201 7.64087 14.31 7.69947 13.9505C9.77309 12.5037 12.3741 12.2197 14.8084 11.7847C14.0826 9.84531 11.9594 9.3882 10.1112 9.21068C10.9992 7.8482 12.9692 8.28756 14.1322 9.04647C15.2276 9.68111 15.7415 10.8572 16.2103 11.9578C16.6927 11.909 17.175 11.8557 17.6619 11.8025C17.4229 10.014 16.864 8.29644 16.3591 6.57004Z" fill="white"/>
</svg>
